<?xml version="1.0" encoding="UTF-8" standalone="no"?>
<!-- Created with Inkscape (http://www.inkscape.org/) -->

<svg
   width="700"
   height="700"
   viewBox="0 0 185.20834 185.20834"
   version="1.1"
   id="svg2919"
   inkscape:version="1.1.1 (3bf5ae0d25, 2021-09-20, custom)"
   sodipodi:docname="i3.svg"
   xmlns:inkscape="http://www.inkscape.org/namespaces/inkscape"
   xmlns:sodipodi="http://sodipodi.sourceforge.net/DTD/sodipodi-0.dtd"
   xmlns="http://www.w3.org/2000/svg"
   xmlns:svg="http://www.w3.org/2000/svg">
  <sodipodi:namedview
     id="namedview2921"
     pagecolor="#ffffff"
     bordercolor="#666666"
     borderopacity="1.0"
     inkscape:pageshadow="2"
     inkscape:pageopacity="0.0"
     inkscape:pagecheckerboard="0"
     inkscape:document-units="mm"
     showgrid="false"
     units="px"
     inkscape:zoom="0.45254834"
     inkscape:cx="333.66601"
     inkscape:cy="224.28543"
     inkscape:window-width="1340"
     inkscape:window-height="699"
     inkscape:window-x="10"
     inkscape:window-y="53"
     inkscape:window-maximized="1"
     inkscape:current-layer="layer1" />
  <defs
     id="defs2916">
    <filter
       inkscape:collect="always"
       id="filter3406"
       color-interpolation-filters="sRGB"
       x="-0.079467379"
       y="-0.088554076"
       width="1.1589348"
       height="1.1771082">
      <feGaussianBlur
         inkscape:collect="always"
         stdDeviation="13.396228"
         id="feGaussianBlur3408" />
    </filter>
  </defs>
  <g
     inkscape:label="Layer 1"
     inkscape:groupmode="layer"
     id="layer1">
    <g
       transform="matrix(0.20729882,-0.20816505,0.20816505,0.20729882,0.8286211,101.26691)"
       style="display:inline;opacity:0.5;fill:#000000;fill-opacity:1;filter:url(#filter3406)"
       id="g3394">
      <path
         style="fill:#000000;fill-opacity:1;fill-rule:evenodd;stroke:none"
         d="M 412.75,98.59375 C 396.19379,98.835333 382.96319,112.44354 383.1875,129 c 0,0 -10e-6,87.25107 0,196.3125 0,23.30736 -12.11655,39.13192 -38.21875,53.46875 -26.1022,14.33683 -64.97276,22.875 -103.875,22.875 -38.90224,0 -77.7728,-8.53817 -103.875,-22.875 C 111.11655,364.44442 99,348.61986 99,325.3125 c 0,-54.37333 0.441249,-103.35555 0.65625,-138.875 0.1075,-17.75973 0.177008,-32.11577 0.09375,-42.34375 -0.04163,-5.11399 -0.129499,-9.10767 -0.28125,-12.46875 -0.07588,-1.68054 -0.136902,-3.05581 -0.40625,-5.25 -0.134674,-1.09709 -0.168072,-2.2122 -1,-5.1875 C 97.646536,119.69985 97.275733,117.79087 94.875,113.75 92.474267,109.70913 84.912085,98.999943 69,99 59.653467,98.879464 50.78473,103.12192 45.013008,110.47443 39.241286,117.82694 37.226064,127.44941 39.5625,136.5 c 0.06318,2.03091 0.15684,4.32729 0.1875,8.09375 0.07765,9.5394 0.0133,23.81477 -0.09375,41.5 C 39.442151,221.46421 39,270.62442 39,325.3125 c -10e-7,47.58256 30.913445,84.95437 69.34375,106.0625 38.43031,21.10813 85.6089,30.28125 132.75,30.28125 47.1411,0 94.31969,-9.17312 132.75,-30.28125 38.43031,-21.10813 69.34375,-58.47994 69.34375,-106.0625 -10e-6,-109.06142 0,-196.3125 0,-196.3125 0.10978,-8.10283 -3.06279,-15.9055 -8.79582,-21.63265 -5.73304,-5.72715 -13.53896,-8.891699 -21.64168,-8.7736 z"
         id="path3396"
         inkscape:connector-curvature="0" />
      <path
         style="fill:#000000;fill-opacity:1;fill-rule:evenodd;stroke:none"
         d="M 239.5625,99.5 C 223.00629,99.741583 209.77569,113.34979 210,129.90625 V 350 c -0.15301,10.81908 5.53126,20.88244 14.87619,26.33663 9.34492,5.45419 20.9027,5.45419 30.24762,0 C 264.46874,370.88244 270.15301,360.81908 270,350 V 129.90625 c 0.10978,-8.10283 -3.06279,-15.9055 -8.79582,-21.63265 -5.73304,-5.72715 -13.53896,-8.891699 -21.64168,-8.7736 z"
         id="path3398"
         inkscape:connector-curvature="0" />
      <circle
         style="fill:#000000;fill-opacity:1;stroke-width:60;stroke-linecap:round;stroke-linejoin:round;stroke-miterlimit:4;stroke-dasharray:none"
         id="path3400"
         transform="translate(0,-10)"
         cx="70"
         cy="40"
         r="30" />
      <circle
         transform="translate(170,-10)"
         id="path3402"
         style="fill:#000000;fill-opacity:1;stroke-width:60;stroke-linecap:round;stroke-linejoin:round;stroke-miterlimit:4;stroke-dasharray:none"
         cx="70"
         cy="40"
         r="30" />
      <circle
         style="fill:#000000;fill-opacity:1;stroke-width:60;stroke-linecap:round;stroke-linejoin:round;stroke-miterlimit:4;stroke-dasharray:none"
         id="path3404"
         transform="translate(345,-10)"
         cx="70"
         cy="40"
         r="30" />
    </g>
    <path
       style="color:#000000;display:inline;overflow:visible;visibility:visible;opacity:0.87;fill:#ffffff;fill-opacity:1;fill-rule:evenodd;stroke:none;stroke-width:4.63254;marker:none;enable-background:accumulate"
       d="m 106.915,35.785151 c -3.38181,3.496514 -3.29174,9.071625 0.20123,12.457071 0,0 18.16262,18.087054 40.86541,40.695356 4.85176,4.831588 5.63414,10.634228 3.20761,19.039822 -2.42652,8.40558 -8.70699,18.26702 -16.77139,26.3651 -8.06438,8.09809 -17.89957,14.41963 -26.29493,16.88118 -8.395397,2.46156 -14.201257,1.70339 -19.053037,-3.1282 -11.318619,-11.27154 -21.423537,-21.51735 -28.772872,-28.92524 -3.674676,-3.70394 -6.648692,-6.69439 -8.795059,-8.79731 -1.073184,-1.05147 -1.922744,-1.86106 -2.653863,-2.52622 -0.365555,-0.33258 -0.664484,-0.60497 -1.177087,-1.00376 -0.256282,-0.19938 -0.495328,-0.42359 -1.287144,-0.86719 -0.395907,-0.2218 -0.870157,-0.54033 -2.209005,-0.87826 -1.338826,-0.33793 -5.135738,-0.98373 -8.434284,2.32861 -1.962614,1.92064 -2.917961,4.64627 -2.583897,7.3719 0.334064,2.72563 1.919377,5.13986 4.287735,6.52966 0.435861,0.40787 0.933302,0.8644 1.723699,1.6388 2.00187,1.96134 4.960159,4.934 8.619419,8.62242 7.318509,7.37683 17.460281,17.65972 28.84443,28.9965 9.905018,9.8638 24.092865,11.17583 36.453385,7.55168 12.36054,-3.62415 24.05011,-11.54351 33.82241,-21.35664 9.77231,-9.81314 17.64284,-21.53565 21.21542,-33.91117 3.57259,-12.37555 2.2014,-26.557784 -7.70362,-36.421595 -22.70278,-22.608296 -40.86541,-40.69535 -40.86541,-40.69535 -1.66396,-1.702559 -3.94587,-2.659632 -6.3265,-2.65344 -2.38065,0.0059 -4.65757,0.975093 -6.31265,2.686276 z"
       id="path2405"
       inkscape:connector-curvature="0" />
    <path
       style="display:inline;opacity:0.87;fill:#ffffff;fill-opacity:1;fill-rule:evenodd;stroke:none;stroke-width:0.0772092"
       d="m 71.202074,72.024615 c -3.381794,3.496499 -3.291734,9.07161 0.201251,12.457056 l 45.815805,45.625169 c 2.22044,2.27464 5.49363,3.1775 8.5662,2.36286 3.07256,-0.81464 5.46847,-3.22056 6.27028,-6.2965 0.80184,-3.07594 -0.11466,-6.34532 -2.39854,-8.55625 L 83.841258,71.991764 c -1.663979,-1.702559 -3.945893,-2.659617 -6.326537,-2.65344 -2.380635,0.0059 -4.657546,0.975093 -6.312647,2.686291 z"
       id="path3179"
       inkscape:connector-curvature="0" />
    <circle
       style="color:#000000;display:inline;overflow:visible;visibility:visible;opacity:0.87;fill:#ffffff;fill-opacity:1;fill-rule:evenodd;stroke:none;stroke-width:36.7169;marker:none;enable-background:accumulate"
       id="path3181"
       transform="rotate(-45.119459)"
       cx="-50.606503"
       cy="80.857559"
       r="8.8133392" />
    <circle
       transform="rotate(-45.119459)"
       id="path3183"
       style="color:#000000;display:inline;overflow:visible;visibility:visible;opacity:0.87;fill:#ffffff;fill-opacity:1;fill-rule:evenodd;stroke:none;stroke-width:36.7169;marker:none;enable-background:accumulate"
       cx="-0.66426229"
       cy="80.857559"
       r="8.8133392" />
    <circle
       style="color:#000000;display:inline;overflow:visible;visibility:visible;opacity:0.87;fill:#ffffff;fill-opacity:1;fill-rule:evenodd;stroke:none;stroke-width:36.7169;marker:none;enable-background:accumulate"
       id="path3185"
       transform="rotate(-45.119459)"
       cx="50.74691"
       cy="80.857552"
       r="8.8133392" />
  </g>
</svg>
